<svg width="24" height="24" viewBox="0 0 24 24" fill="none" xmlns="http://www.w3.org/2000/svg">
<path d="M23.4413 9.84633L23.2495 7.35467C23.2292 7.09672 23.1354 6.84999 22.9793 6.64362C22.8233 6.43726 22.6114 6.27989 22.3687 6.19011C22.126 6.10034 21.8627 6.0819 21.6099 6.13699C21.3571 6.19208 21.1253 6.3184 20.942 6.501L17.1785 10.2667C17.1534 10.2919 17.1235 10.3119 17.0906 10.3256C17.0577 10.3392 17.0224 10.3462 16.9868 10.3462C16.9511 10.3462 16.9159 10.3392 16.883 10.3256C16.8501 10.3119 16.8202 10.2919 16.795 10.2667L13.7335 7.20517C13.6829 7.1544 13.6545 7.08564 13.6545 7.01396C13.6545 6.94228 13.6829 6.87352 13.7335 6.82275L17.4981 3.05817C17.6807 2.87478 17.8071 2.64293 17.8621 2.39003C17.9171 2.13713 17.8986 1.87375 17.8087 1.63105C17.7188 1.38834 17.5613 1.17646 17.3548 1.02044C17.1483 0.86443 16.9014 0.770815 16.6433 0.750667L14.1517 0.558917C12.1987 0.407274 10.2553 0.952825 8.66656 2.09865C7.07784 3.24447 5.94673 4.91638 5.47418 6.81733C5.44476 6.93401 5.4418 7.05578 5.46552 7.17375L6.00718 9.86583C6.05097 10.0846 6.04006 10.3108 5.97543 10.5244C5.91079 10.7379 5.79444 10.9322 5.63668 11.09L1.85693 14.8665C1.29912 15.4254 0.98584 16.1828 0.98584 16.9725C0.98584 17.7622 1.29912 18.5196 1.85693 19.0785L4.92168 22.1433C5.48062 22.7011 6.23802 23.0143 7.02768 23.0143C7.81734 23.0143 8.57475 22.7011 9.13368 22.1433L12.9102 18.3668C13.0672 18.2083 13.2613 18.0914 13.4748 18.0267C13.6884 17.9621 13.9147 17.9516 14.1333 17.9963L16.8264 18.5379C16.9444 18.5616 17.0662 18.5587 17.1828 18.5293C19.0858 18.0583 20.7596 16.9268 21.9058 15.3366C23.0521 13.7463 23.5962 11.8005 23.4413 9.84633Z" fill="#202124"/>
</svg>
